<svg width="122" height="101" viewBox="0 0 122 101" fill="none" xmlns="http://www.w3.org/2000/svg">
    <path fill-rule="evenodd" clip-rule="evenodd" d="M53.783 44.132c0-3.157-2.184-5.801-5.241-6.61-.696-3.359-3.818-5.91-7.474-5.91h-.016c-1.375-2.332-3.996-3.84-6.827-3.84-2.482 0-4.738 1.104-6.193 2.901a2.859 2.859 0 0 1-2.084 1.054c-2.858.122-5.3 1.8-6.454 4.19a2.968 2.968 0 0 1-1.9 1.57c-3.08.806-5.352 3.51-5.352 6.723 0 3.84 3.251 6.967 7.263 6.967.107 0 .236-.01.388-.023l.097-.008c1.958-.171 3.85.497 5.177 1.85a5.495 5.495 0 0 1 1.194 1.837c.391.998 1.23 1.88 2.302 1.88h8.6c1.097 0 1.951-.924 2.334-1.953a5.688 5.688 0 0 1 1.31-2.028c1.293-1.322 3.121-1.96 4.998-1.757.291.03.534.046.712.046 3.947 0 7.166-3.095 7.166-6.89zM39.87 59.715H26.137c-.578 0-1.104.486-1.245 1.192-.717 3.484-2.107 7.09-3.864 10.628-.44.888.54 1.86 1.408 1.382l4.907-2.703c.321-.189.706-.189 1.04-.016.334.173.59.518.706.942l.697 2.524c.241.874 1.434.987 1.835.174l1.486-3.012c.244-.471.693-.77 1.117-.754.462 0 .872.299 1.103.785l4.22 9.09c.371.798 1.52.75 1.822-.076l3.239-8.873c.026-.063.034-.13.004-.19-1.582-3.297-2.835-6.653-3.496-9.9-.14-.707-.667-1.193-1.245-1.193zm5.33 18.183c.594-1.555 2.751-1.732 3.65-.331 7.163 11.16 16.545 20.33 16.688 20.469.423.417.581 1.097.397 1.715-.185.619-.687 1.02-1.242 1.02H1.33c-.555 0-1.056-.401-1.241-1.02-.185-.618-.026-1.298.396-1.715.13-.122 8.19-8.008 15.075-18.046.183-.266.427-.485.713-.636l8.533-4.508a1.972 1.972 0 0 1 2.817 1.2l1.192 4.156c.158.572.594.974 1.109 1.035.501.078 1.003-.216 1.267-.726l1.217-2.358c.745-1.444 2.817-1.419 3.527.042l3.837 7.895c.237.495.673.788 1.148.788h.066c.489-.03.938-.386 1.136-.912L45.2 77.9z" fill="#FDBD39"/>
    <path d="M53.252 26.245c1.645-3.123 3.117-6.2 5.582-8.776 3.04-3.175 6.873-7.342 11.012-9.095 1.821-.772-.175 3.25-.18 3.263-1.976 4.12-4.359 8.037-6.555 12.04a218.397 218.397 0 0 0-2.624 4.901c-.312.604-1.376 2.184-.764 1.889 1.974-.953 4.083-3.09 5.818-4.333 7.888-5.651 16.098-10.893 24.273-16.122.32-.204 4.584-2.301 4.513-2.041-.581 2.153-3.44 4.664-4.707 6.29-2.581 3.311-5 6.664-7.207 10.235-.377.61-2.42 2.994-.528 3.027.954.016 1.771-.286 2.68-.597 4.279-1.467 8.462-3.242 12.678-4.874 7.581-2.935 15.138-5.951 22.746-8.804M45.504 20.996C47.854 14.051 51.423 7.724 56.002 2" stroke="#F69833" stroke-width="4" stroke-linecap="round"/>
</svg>
